<svg viewBox="0 0 300 400" xmlns="http://www.w3.org/2000/svg">
  <rect fill="#F5E9E2" width="300" height="400"/>
  <ellipse cx="150" cy="350" rx="50" ry="30" fill="rgba(0, 0, 0, 0.05)"/>
  <path d="M 80 250 Q 80 150 150 100 Q 220 150 220 250 Q 220 300 150 320 Q 80 300 80 250" fill="#E8C9C9"/>
  <ellipse cx="150" cy="120" rx="60" ry="20" fill="#D4A5A5" opacity="0.6"/>
  <!-- Unha em gel - Branca (Francesinha) -->
  <path d="M 100 120 Q 100 60 150 40 Q 200 60 200 120 Q 200 180 180 210 Q 120 210 100 180 Z" fill="#FAFAFA"/>
  <!-- Base colorida - Rosa -->
  <path d="M 105 140 Q 105 100 150 85 Q 195 100 195 140 Q 195 170 175 195 Q 125 195 105 170 Z" fill="#F7CDE2" opacity="0.7"/>
  <!-- Ponta branca forte -->
  <path d="M 110 180 Q 150 220 190 180 Q 185 200 175 210 Q 125 210 115 200 Z" fill="#FFFFFF" opacity="0.8"/>
  <!-- Linha de separação -->
  <ellipse cx="150" cy="165" rx="75" ry="8" fill="none" stroke="#E8B7A7" stroke-width="1.5"/>
  <!-- Brilhos -->
  <ellipse cx="135" cy="75" rx="6" ry="10" fill="white" opacity="0.5"/>
  <ellipse cx="165" cy="85" rx="8" ry="12" fill="white" opacity="0.3"/>
</svg>