<svg viewBox="0 0 300 400" xmlns="http://www.w3.org/2000/svg">
  <rect fill="#F5E9E2" width="300" height="400"/>
  <ellipse cx="150" cy="350" rx="50" ry="30" fill="rgba(0, 0, 0, 0.05)"/>
  <path d="M 80 250 Q 80 150 150 100 Q 220 150 220 250 Q 220 300 150 320 Q 80 300 80 250" fill="#E8C9C9"/>
  <ellipse cx="150" cy="120" rx="60" ry="20" fill="#D4A5A5" opacity="0.6"/>
  <!-- Unha em gel - Com Nail Art Floral -->
  <path d="M 100 120 Q 100 60 150 40 Q 200 60 200 120 Q 200 180 180 210 Q 120 210 100 180 Z" fill="url(#gradientNail3)"/>
  <!-- Flores decorativas -->
  <g>
    <!-- Flor 1 -->
    <circle cx="130" cy="100" r="4" fill="#D4AF37"/>
    <circle cx="125" cy="95" r="3" fill="#E8B7A7"/>
    <circle cx="135" cy="95" r="3" fill="#E8B7A7"/>
    <circle cx="125" cy="105" r="3" fill="#E8B7A7"/>
    <circle cx="135" cy="105" r="3" fill="#E8B7A7"/>
  </g>
  <!-- Flor 2 -->
  <g>
    <circle cx="170" cy="120" r="4" fill="#D4AF37"/>
    <circle cx="165" cy="115" r="3" fill="#F7CDE2"/>
    <circle cx="175" cy="115" r="3" fill="#F7CDE2"/>
    <circle cx="165" cy="125" r="3" fill="#F7CDE2"/>
    <circle cx="175" cy="125" r="3" fill="#F7CDE2"/>
  </g>
  <!-- Folhas -->
  <path d="M 135 110 Q 140 115 135 120" stroke="#A8D5A8" stroke-width="2" fill="none" stroke-linecap="round"/>
  <path d="M 165 130 Q 170 135 165 140" stroke="#A8D5A8" stroke-width="2" fill="none" stroke-linecap="round"/>
  <!-- Brilhos -->
  <ellipse cx="145" cy="65" rx="8" ry="15" fill="white" opacity="0.4"/>
  
  <defs>
    <linearGradient id="gradientNail3" x1="0%" y1="0%" x2="0%" y2="100%">
      <stop offset="0%" style="stop-color:#F7CDE2;stop-opacity:1" />
      <stop offset="100%" style="stop-color:#E8B7A7;stop-opacity:1" />
    </linearGradient>
  </defs>
</svg>