<svg viewBox="0 0 300 400" xmlns="http://www.w3.org/2000/svg">
  <rect fill="#F5E9E2" width="300" height="400"/>
  <ellipse cx="150" cy="350" rx="50" ry="30" fill="rgba(0, 0, 0, 0.05)"/>
  <path d="M 80 250 Q 80 150 150 100 Q 220 150 220 250 Q 220 300 150 320 Q 80 300 80 250" fill="#E8C9C9"/>
  <ellipse cx="150" cy="120" rx="60" ry="20" fill="#D4A5A5" opacity="0.6"/>
  <!-- Unha em gel - Com Degradê Rosé -->
  <path d="M 100 120 Q 100 60 150 40 Q 200 60 200 120 Q 200 180 180 210 Q 120 210 100 180 Z" fill="url(#gradientRose)"/>
  <!-- Padrão geométrico -->
  <polygon points="130,90 140,95 130,100 120,95" fill="rgba(212, 175, 55, 0.5)"/>
  <polygon points="170,110 180,115 170,120 160,115" fill="rgba(212, 175, 55, 0.4)"/>
  <!-- Linhas geométricas -->
  <line x1="105" y1="130" x2="115" y2="150" stroke="rgba(232, 183, 167, 0.4)" stroke-width="1" stroke-linecap="round"/>
  <line x1="195" y1="150" x2="185" y2="170" stroke="rgba(232, 183, 167, 0.4)" stroke-width="1" stroke-linecap="round"/>
  <!-- Destaques principais -->
  <ellipse cx="135" cy="75" rx="10" ry="18" fill="white" opacity="0.4"/>
  <ellipse cx="165" cy="90" rx="7" ry="14" fill="white" opacity="0.3"/>
  
  <defs>
    <linearGradient id="gradientRose" x1="0%" y1="0%" x2="0%" y2="100%">
      <stop offset="0%" style="stop-color:#F7CDE2;stop-opacity:1" />
      <stop offset="40%" style="stop-color:#E8B7A7;stop-opacity:1" />
      <stop offset="100%" style="stop-color:#D4A8A0;stop-opacity:1" />
    </linearGradient>
  </defs>
</svg>