<svg viewBox="0 0 300 400" xmlns="http://www.w3.org/2000/svg">
  <rect fill="#F5E9E2" width="300" height="400"/>
  <ellipse cx="150" cy="350" rx="50" ry="30" fill="rgba(0, 0, 0, 0.05)"/>
  <path d="M 80 250 Q 80 150 150 100 Q 220 150 220 250 Q 220 300 150 320 Q 80 300 80 250" fill="#E8C9C9"/>
  <ellipse cx="150" cy="120" rx="60" ry="20" fill="#D4A5A5" opacity="0.6"/>
  <!-- Unha em gel - Tom Nude Elegante -->
  <path d="M 100 120 Q 100 60 150 40 Q 200 60 200 120 Q 200 180 180 210 Q 120 210 100 180 Z" fill="url(#gradientNude)"/>
  <!-- Linhas decorativas minimalistas -->
  <path d="M 120 100 Q 130 110 140 100" stroke="rgba(232, 183, 167, 0.6)" stroke-width="1.5" fill="none"/>
  <path d="M 160 130 Q 170 140 175 130" stroke="rgba(232, 183, 167, 0.6)" stroke-width="1.5" fill="none"/>
  <path d="M 110 160 Q 140 170 165 160" stroke="rgba(212, 175, 55, 0.4)" stroke-width="1" fill="none"/>
  <!-- Pontos de ouro -->
  <circle cx="125" cy="140" r="1.5" fill="#D4AF37" opacity="0.7"/>
  <circle cx="175" cy="160" r="1" fill="#D4AF37" opacity="0.6"/>
  <!-- Brilho natural -->
  <ellipse cx="145" cy="70" rx="15" ry="18" fill="white" opacity="0.35"/>
  
  <defs>
    <linearGradient id="gradientNude" x1="0%" y1="0%" x2="0%" y2="100%">
      <stop offset="0%" style="stop-color:#F5E9E2;stop-opacity:1" />
      <stop offset="60%" style="stop-color:#E8D7CE;stop-opacity:1" />
      <stop offset="100%" style="stop-color:#D4B8AB;stop-opacity:1" />
    </linearGradient>
  </defs>
</svg>